<svg width="24" height="24" viewBox="0 0 24 24" fill="none" xmlns="http://www.w3.org/2000/svg">
<path d="M21.4701 11.1849L20.4401 9.75494C20.2095 9.43115 19.9051 9.167 19.5521 8.98439C19.199 8.80178 18.8075 8.70598 18.4101 8.70494H14.0301V6.56494C14.0301 5.9019 13.7667 5.26602 13.2978 4.79717C12.829 4.32833 12.1931 4.06494 11.5301 4.06494H4.56006C3.89759 4.06679 3.26277 4.33077 2.79433 4.79921C2.32589 5.26766 2.06191 5.90247 2.06006 6.56494V16.5049C2.06006 16.9028 2.21809 17.2843 2.4994 17.5656C2.7807 17.8469 3.16223 18.0049 3.56006 18.0049H4.78006C4.85557 18.54 5.12176 19.0297 5.52966 19.3841C5.93756 19.7385 6.45972 19.9336 7.00006 19.9336C7.54039 19.9336 8.06255 19.7385 8.47045 19.3841C8.87835 19.0297 9.14455 18.54 9.22006 18.0049H14.7801C14.8556 18.54 15.1218 19.0297 15.5297 19.3841C15.9376 19.7385 16.4597 19.9336 17.0001 19.9336C17.5404 19.9336 18.0626 19.7385 18.4705 19.3841C18.8784 19.0297 19.1445 18.54 19.2201 18.0049H20.4401C20.8379 18.0049 21.2194 17.8469 21.5007 17.5656C21.782 17.2843 21.9401 16.9028 21.9401 16.5049V12.6349C21.9376 12.1146 21.7734 11.6078 21.4701 11.1849ZM7.00006 18.9349C6.75283 18.9349 6.51116 18.8616 6.3056 18.7243C6.10003 18.5869 5.93982 18.3917 5.84521 18.1633C5.7506 17.9349 5.72585 17.6836 5.77408 17.4411C5.82231 17.1986 5.94136 16.9759 6.11618 16.8011C6.29099 16.6262 6.51372 16.5072 6.7562 16.459C6.99867 16.4107 7.25001 16.4355 7.47841 16.5301C7.70682 16.6247 7.90204 16.7849 8.0394 16.9905C8.17675 17.196 8.25006 17.4377 8.25006 17.6849C8.25006 18.0165 8.11836 18.3344 7.88394 18.5688C7.64952 18.8032 7.33158 18.9349 7.00006 18.9349ZM13.0301 17.0049H9.15006C9.00446 16.5491 8.71772 16.1513 8.33126 15.869C7.9448 15.5867 7.47862 15.4346 7.00006 15.4346C6.5215 15.4346 6.05532 15.5867 5.66886 15.869C5.2824 16.1513 4.99566 16.5491 4.85006 17.0049H3.56006C3.42745 17.0049 3.30027 16.9523 3.20651 16.8585C3.11274 16.7647 3.06006 16.6375 3.06006 16.5049V6.56494C3.06006 6.16712 3.21809 5.78559 3.4994 5.50428C3.7807 5.22298 4.16223 5.06494 4.56006 5.06494H11.5301C11.9279 5.06494 12.3094 5.22298 12.5907 5.50428C12.872 5.78559 13.0301 6.16712 13.0301 6.56494V17.0049ZM17.0001 18.9349C16.7528 18.9349 16.5112 18.8616 16.3056 18.7243C16.1 18.5869 15.9398 18.3917 15.8452 18.1633C15.7506 17.9349 15.7258 17.6836 15.7741 17.4411C15.8223 17.1986 15.9414 16.9759 16.1162 16.8011C16.291 16.6262 16.5137 16.5072 16.7562 16.459C16.9987 16.4107 17.25 16.4355 17.4784 16.5301C17.7068 16.6247 17.902 16.7849 18.0394 16.9905C18.1767 17.196 18.2501 17.4377 18.2501 17.6849C18.2501 18.0165 18.1184 18.3344 17.8839 18.5688C17.6495 18.8032 17.3316 18.9349 17.0001 18.9349ZM20.9401 16.5049C20.9401 16.6375 20.8874 16.7647 20.7936 16.8585C20.6998 16.9523 20.5727 17.0049 20.4401 17.0049H19.1501C19.0045 16.5491 18.7177 16.1513 18.3313 15.869C17.9448 15.5867 17.4786 15.4346 17.0001 15.4346C16.5215 15.4346 16.0553 15.5867 15.6689 15.869C15.2824 16.1513 14.9957 16.5491 14.8501 17.0049H14.0301V9.70494H18.4101C18.6486 9.70654 18.8835 9.76443 19.0955 9.8739C19.3075 9.98337 19.4906 10.1413 19.6301 10.3349L20.6601 11.7649C20.84 12.0196 20.9377 12.3232 20.9401 12.6349V16.5049Z" fill="#797979"/>
<path d="M18.0291 12.205H16.0291C15.8964 12.205 15.7693 12.1523 15.6755 12.0585C15.5817 11.9647 15.5291 11.8376 15.5291 11.705C15.5291 11.5723 15.5817 11.4452 15.6755 11.3514C15.7693 11.2576 15.8964 11.205 16.0291 11.205H18.0291C18.1617 11.205 18.2888 11.2576 18.3826 11.3514C18.4764 11.4452 18.5291 11.5723 18.5291 11.705C18.5291 11.8376 18.4764 11.9647 18.3826 12.0585C18.2888 12.1523 18.1617 12.205 18.0291 12.205Z" fill="#797979"/>
</svg>
