<svg width="25" height="24" viewBox="0 0 25 24" fill="none" xmlns="http://www.w3.org/2000/svg">
<path fill-rule="evenodd" clip-rule="evenodd" d="M7.76876 1.25H16.8982C17.4681 1.24998 17.9521 1.24997 18.352 1.29132C18.7778 1.33534 19.1713 1.43094 19.5431 1.66071C19.9149 1.89048 20.1764 2.19971 20.4062 2.56088C20.622 2.9001 20.8384 3.33297 21.0933 3.8428L21.1098 3.87574C21.1195 3.89518 21.1284 3.91504 21.1364 3.93526L22.54 7.4834C22.707 7.90559 22.8921 8.4323 22.9462 8.97128C23.0016 9.52258 22.9256 10.1541 22.4936 10.7019C22.1403 11.15 21.649 11.4863 21.0835 11.6463V21.25H22.3335C22.7477 21.25 23.0835 21.5858 23.0835 22C23.0835 22.4142 22.7477 22.75 22.3335 22.75H2.3335C1.91929 22.75 1.5835 22.4142 1.5835 22C1.5835 21.5858 1.91929 21.25 2.3335 21.25H3.5835V11.6464C3.01796 11.4863 2.52662 11.15 2.17325 10.7019C1.74129 10.1541 1.66532 9.52257 1.72068 8.97127C1.7748 8.43229 1.95989 7.90559 2.1269 7.4834L3.53051 3.93526C3.53851 3.91504 3.54738 3.89518 3.55711 3.87574L3.5736 3.84275C3.82848 3.33295 4.04489 2.90009 4.26073 2.56088C4.49054 2.19971 4.75203 1.89048 5.12381 1.66071C5.49558 1.43094 5.88911 1.33534 6.31492 1.29132C6.71484 1.24997 7.19879 1.24998 7.76876 1.25ZM18.3334 10.8875C18.6694 11.2433 19.0993 11.5096 19.5835 11.6465V21.25H15.5835V18.4678C15.5835 18.028 15.5835 17.6486 15.5553 17.3374C15.5255 17.0082 15.4594 16.6822 15.2821 16.375C15.0846 16.033 14.8005 15.7489 14.4585 15.5514C14.1513 15.3741 13.8253 15.308 13.4962 15.2782C13.1849 15.25 12.8055 15.25 12.3657 15.25H12.3013C11.8615 15.25 11.4821 15.25 11.1708 15.2782C10.8417 15.308 10.5157 15.3741 10.2085 15.5514C9.86646 15.7489 9.58242 16.033 9.38494 16.375C9.20757 16.6822 9.14152 17.0082 9.11168 17.3374C9.08347 17.6486 9.08348 18.028 9.0835 18.4677V21.25H5.0835V11.6465C5.56763 11.5095 5.99748 11.2433 6.33342 10.8875C6.8348 11.4186 7.5454 11.75 8.33341 11.75C9.12143 11.75 9.83203 11.4186 10.3334 10.8875C10.8348 11.4186 11.5454 11.75 12.3334 11.75C13.1214 11.75 13.832 11.4186 14.3334 10.8875C14.8348 11.4186 15.5454 11.75 16.3334 11.75C17.1214 11.75 17.832 11.4186 18.3334 10.8875ZM10.5835 21.25H14.0835V18.5C14.0835 18.0189 14.0828 17.7082 14.0614 17.4727C14.041 17.2476 14.0066 17.1659 13.983 17.125C13.9172 17.011 13.8225 16.9163 13.7085 16.8505C13.6676 16.8269 13.5859 16.7925 13.3608 16.7721C13.1253 16.7507 12.8146 16.75 12.3335 16.75C11.8524 16.75 11.5417 16.7507 11.3062 16.7721C11.0811 16.7925 10.9994 16.8269 10.9585 16.8505C10.8445 16.9163 10.7498 17.011 10.684 17.125C10.6604 17.1659 10.626 17.2476 10.6056 17.4727C10.5842 17.7082 10.5835 18.0189 10.5835 18.5V21.25ZM7.08341 9C7.08341 9.69036 7.64306 10.25 8.33341 10.25C9.02377 10.25 9.58341 9.69036 9.58341 9C9.58341 8.58579 9.9192 8.25 10.3334 8.25C10.7476 8.25 11.0834 8.58579 11.0834 9C11.0834 9.69036 11.6431 10.25 12.3334 10.25C13.0238 10.25 13.5834 9.69036 13.5834 9C13.5834 8.58579 13.9192 8.25 14.3334 8.25C14.7476 8.25 15.0834 8.58579 15.0834 9C15.0834 9.69036 15.6431 10.25 16.3334 10.25C17.0238 10.25 17.5834 9.69036 17.5834 9C17.5834 8.58579 17.9192 8.25 18.3334 8.25C18.7476 8.25 19.0834 8.58579 19.0834 9C19.0834 9.69036 19.6431 10.25 20.3334 10.25C20.7314 10.25 21.0857 10.0649 21.3158 9.77305C21.4297 9.62859 21.4848 9.43094 21.4537 9.12114C21.4214 8.79903 21.3025 8.43275 21.1452 8.03518L19.7536 4.51739C19.4859 3.98204 19.307 3.62749 19.1406 3.36612C18.9807 3.1147 18.866 3.00562 18.7545 2.93669C18.643 2.86776 18.4941 2.81401 18.1977 2.78336C17.884 2.75093 17.4781 2.75 16.8613 2.75H7.80564C7.18883 2.75 6.7829 2.75093 6.46919 2.78336C6.17277 2.81401 6.02394 2.86776 5.9124 2.93669C5.80087 3.00562 5.68624 3.1147 5.52626 3.36612C5.35996 3.62749 5.18105 3.98204 4.91333 4.51739L3.52173 8.03518C3.36445 8.43275 3.24552 8.79903 3.21317 9.12115C3.18206 9.43095 3.23716 9.62861 3.35109 9.77307C3.5812 10.0649 3.93546 10.25 4.33341 10.25C5.02377 10.25 5.58341 9.69036 5.58341 9C5.58341 8.58579 5.9192 8.25 6.33341 8.25C6.74763 8.25 7.08341 8.58579 7.08341 9Z" fill="#797979"/>
</svg>
